# xmcd
#
# Track frame offsets:
# 150
# 21528
# 44529
# 63279
# 80993
# 100793
# 124427
# 145376
# 168910
# 188032
# 212699
# 227402
#
# Disc length: 3306 seconds
#
#
# Revision: 1
# Processed by: cddbd v1.4PL0 Copyright (c) Steve Scherf et al.
# Submitted via: FreeRIP 2.40 
#
DISCID=ac0ce80c
DTITLE=Story - Story
DYEAR=2001
DGENRE=CCM
TTITLE0=새힘을 얻으리니(에이멘)
TTITLE1=당신은 사랑받기 위해 태어난 사람(LOVE)
TTITLE2=새벽이슬(엘싱어즈)
TTITLE3=아침에 주의 인자하심을(좋은씨앗)
TTITLE4=여호와 우리 주여(이재원)
TTITLE5=사랑으로 가득한 세상(평화나라)
TTITLE6=이제 다시(소리엘)
TTITLE7=주님만이(다윗과요나단)
TTITLE8=롬16:19(WITH)
TTITLE9=하늘에(이현덕,최인혁)
TTITLE10=그리 아니하실지라도(안성진)
TTITLE11=너는 내 아들이라(이은수)
EXTD=
EXTT0=
EXTT1=
EXTT2=
EXTT3=
EXTT4=
EXTT5=
EXTT6=
EXTT7=
EXTT8=
EXTT9=
EXTT10=
EXTT11=
PLAYORDER=
